<svg xmlns="http://www.w3.org/2000/svg" xmlns:svg="http://www.w3.org/2000/svg" id="svg8" enable-background="new 0 0 400.004 400.004" version="1.1" viewBox="0 0 400 400" xml:space="preserve"><metadata id="metadata2"/><g id="g6" transform="rotate(-90,199.996,200.012)" style="opacity:.98999999;fill:#4671c8;fill-opacity:1"><path id="path4" d="M 382.69,182.69 H 59.12 l 77.209,-77.214 c 6.764,-6.76 6.764,-17.726 0,-24.485 -6.764,-6.764 -17.73,-6.764 -24.484,0 L 5.075,187.761 c -6.764,6.76 -6.764,17.727 0,24.485 l 106.77,106.78 c 3.381,3.383 7.812,5.072 12.242,5.072 4.43,0 8.861,-1.689 12.242,-5.072 6.764,-6.76 6.764,-17.726 0,-24.484 L 59.12,217.324 h 323.57 c 9.562,0 17.316,-7.753 17.316,-17.315 0,-9.562 -7.753,-17.314 -17.316,-17.314 z" style="fill:#4671c8;fill-opacity:1"/></g></svg>